<svg id="Layer_1" data-name="Layer 1" xmlns="http://www.w3.org/2000/svg" viewBox="0 0 426.43 75.05"><defs><style>.cls-1{fill:#2d2c2d;}.cls-2{fill:#f26a21;}</style></defs><title>boolando</title><path class="cls-1" d="M131.9,141.9a33.86,33.86,0,0,1-1.17,9.2,20,20,0,0,1-3.66,7.19A16.52,16.52,0,0,1,120.8,163a22.19,22.19,0,0,1-9,1.67,55.66,55.66,0,0,1-8.09-.61,32.12,32.12,0,0,1-7.85-2.16,1.57,1.57,0,0,1-1.05-1.62V105.63c0-.6.12-1,.36-1.1a2.33,2.33,0,0,1,1.08-.2h5.08a2.29,2.29,0,0,1,1.12.2c.22.14.33.5.33,1.1l.08,16.1a44.24,44.24,0,0,1,5.53-1.14,37.41,37.41,0,0,1,5-.4,20.08,20.08,0,0,1,8.3,1.58,14.88,14.88,0,0,1,5.73,4.48,19.65,19.65,0,0,1,3.34,6.87A33.14,33.14,0,0,1,131.9,141.9Zm-29.11,14.81a28.43,28.43,0,0,0,4.53.93,34.91,34.91,0,0,0,4.2.29,14.08,14.08,0,0,0,5-.86,9.21,9.21,0,0,0,3.88-2.72,13.43,13.43,0,0,0,2.49-4.8,24.63,24.63,0,0,0,.9-7.16q0-7.63-3-11.47a10,10,0,0,0-8.37-3.82c-1,0-2.33.08-4,.25a29.78,29.78,0,0,0-5.59,1.13Z" transform="translate(-2.51 -97.18)"/><path class="cls-1" d="M248.66,163a1.94,1.94,0,0,1-.85.68,11.43,11.43,0,0,1-3.42.81c-1.25.1-2.33.16-3.25.16-2.88,0-4.91-.67-6.1-2s-1.79-3.46-1.79-6.39V105.63c0-.6.1-1,.32-1.1a2.38,2.38,0,0,1,1.14-.2h5.21a2.38,2.38,0,0,1,1.14.2c.21.14.32.5.32,1.1v48.55a4.64,4.64,0,0,0,.61,2.89,2.62,2.62,0,0,0,2.07.69c.49,0,1,0,1.51,0s1-.06,1.42-.12a1.53,1.53,0,0,1,.9.08,1.14,1.14,0,0,1,.32.81l.49,3.54A2.28,2.28,0,0,1,248.66,163Z" transform="translate(-2.51 -97.18)"/><path class="cls-1" d="M289.45,159.55a2.37,2.37,0,0,1-1.38,2.36,28.63,28.63,0,0,1-8,2.2,63.61,63.61,0,0,1-8.25.57,29.36,29.36,0,0,1-8.74-1.1,14,14,0,0,1-5.45-3,10.07,10.07,0,0,1-2.77-4.36,17.56,17.56,0,0,1-.77-5.18,16.48,16.48,0,0,1,.89-5.31,12.29,12.29,0,0,1,3-4.69,14.9,14.9,0,0,1,5.57-3.34,25.66,25.66,0,0,1,8.63-1.26h9.27V135a12.89,12.89,0,0,0-.37-3.22,5.37,5.37,0,0,0-1.38-2.5,6.55,6.55,0,0,0-2.81-1.61,15.6,15.6,0,0,0-4.63-.57c-1,0-2,.06-3,.16s-2.09.25-3.09.41-2,.34-2.85.53-1.64.37-2.24.53a2.7,2.7,0,0,1-1.22.16q-.4-.07-.57-.81l-1.05-4a1.12,1.12,0,0,1,.73-1.54,29.92,29.92,0,0,1,7.36-1.83,56.9,56.9,0,0,1,7.36-.53q8.3,0,12.08,3.78t3.78,10.7Zm-8.13-16.18h-8.74a31.72,31.72,0,0,0-3.31.2,10.37,10.37,0,0,0-3.43,1,7,7,0,0,0-2.7,2.32,7.2,7.2,0,0,0-1.1,4.23q0,4,2.61,5.49a14.11,14.11,0,0,0,7,1.5c.43,0,1,0,1.79,0s1.58-.09,2.45-.2,1.79-.26,2.74-.45a22.87,22.87,0,0,0,2.66-.69Z" transform="translate(-2.51 -97.18)"/><path class="cls-1" d="M335.32,163.58a2.22,2.22,0,0,1-1.14.2h-5a2.3,2.3,0,0,1-1.1-.2c-.24-.13-.36-.5-.36-1.1V141a28.24,28.24,0,0,0-.57-6.06,9.62,9.62,0,0,0-2-4.27,8.79,8.79,0,0,0-3.9-2.56,19,19,0,0,0-6.18-.86c-.6,0-1.49,0-2.69.09a37.86,37.86,0,0,0-4.31.48v34.65c0,.6-.11,1-.32,1.1a2.27,2.27,0,0,1-1.14.2h-5a2.27,2.27,0,0,1-1.1-.2c-.25-.13-.37-.5-.37-1.1V127.67a8.24,8.24,0,0,1,1.14-4.68q1.14-1.67,4.56-2.15l2.11-.21,2.73-.24c.94-.08,1.87-.13,2.76-.16s1.67,0,2.32,0a31.35,31.35,0,0,1,9,1.14,14.3,14.3,0,0,1,6.22,3.62,15.15,15.15,0,0,1,3.62,6.38,33.15,33.15,0,0,1,1.18,9.44v21.71C335.65,163.08,335.54,163.45,335.32,163.58Z" transform="translate(-2.51 -97.18)"/><path class="cls-1" d="M344.59,143.12a32.74,32.74,0,0,1,1.14-8.7,21.2,21.2,0,0,1,3.58-7.32,17.74,17.74,0,0,1,6.18-5,19.8,19.8,0,0,1,8.95-1.87c1.14,0,2.51.07,4.11.2a31.58,31.58,0,0,1,5,.86V105.63c0-.6.11-1,.32-1.1a2.34,2.34,0,0,1,1.13-.2h5.07a2.38,2.38,0,0,1,1.09.2c.24.14.36.5.36,1.1v54.49a1.53,1.53,0,0,1-1,1.55,33.23,33.23,0,0,1-8.85,2.44,64.05,64.05,0,0,1-8,.57,22.35,22.35,0,0,1-8.8-1.55,15.06,15.06,0,0,1-5.89-4.35,17.56,17.56,0,0,1-3.28-6.79A35.78,35.78,0,0,1,344.59,143.12Zm8.3,0q0,8,3.17,11.36t8.87,3.32a32.9,32.9,0,0,0,4.51-.36,17.08,17.08,0,0,0,4.11-1V128.24a35.1,35.1,0,0,0-4.76-.94,37.12,37.12,0,0,0-3.78-.2,13.3,13.3,0,0,0-4.8.85,9.52,9.52,0,0,0-3.82,2.76,13.6,13.6,0,0,0-2.56,4.95A25.28,25.28,0,0,0,352.89,143.08Z" transform="translate(-2.51 -97.18)"/><path class="cls-1" d="M428.94,142.23q0,10.91-4.91,16.67t-14.49,5.78q-9.33,0-14.16-5.57t-4.83-16.64A28.4,28.4,0,0,1,392,133a20.14,20.14,0,0,1,4.06-7,17.17,17.17,0,0,1,6.12-4.31,19.77,19.77,0,0,1,7.59-1.46q9.42,0,14.29,5.81T428.94,142.23Zm-8,.24a37.46,37.46,0,0,0-.45-5.85,14.52,14.52,0,0,0-1.67-5,9.44,9.44,0,0,0-3.33-3.46,10.43,10.43,0,0,0-5.53-1.3,10.12,10.12,0,0,0-5.09,1.22,10.6,10.6,0,0,0-3.57,3.29,14.74,14.74,0,0,0-2.12,4.88,25,25,0,0,0-.69,6,35.43,35.43,0,0,0,.53,6.47,14,14,0,0,0,1.83,5,9,9,0,0,0,3.45,3.21,11.33,11.33,0,0,0,5.33,1.14,10.3,10.3,0,0,0,5.41-1.3,10.05,10.05,0,0,0,3.46-3.46,15.68,15.68,0,0,0,1.87-5A29.16,29.16,0,0,0,421,142.47Z" transform="translate(-2.51 -97.18)"/><path class="cls-1" d="M158.42,118.9c-17.69,0-19.2,12-19.23,23.13s1.51,23,19.23,23,19.2-11.86,19.23-23C177.62,130.35,176.12,118.93,158.42,118.9Zm0,39.65c-10.73-.06-11.27-5.71-11.36-16.52.09-10.87.6-16.55,11.36-16.61s11.3,5.74,11.35,16.61S169.15,158.52,158.42,158.55Z" transform="translate(-2.51 -97.18)"/><path class="cls-1" d="M204.21,118.9c-17.69,0-19.2,12-19.23,23.13s1.51,23,19.23,23,19.2-11.86,19.23-23C223.41,130.35,221.91,118.93,204.21,118.9Zm0,39.65c-10.72-.06-11.27-5.71-11.35-16.52.08-10.87.6-16.55,11.35-16.61s11.3,5.74,11.36,16.61C215.48,152.84,214.94,158.52,204.21,158.55Z" transform="translate(-2.51 -97.18)"/><path class="cls-2" d="M37.65,98.19l-4.31,4.31a3.43,3.43,0,0,0,0,4.87l24.89,24.89a3.46,3.46,0,0,1,0,4.88L33.34,162a3.43,3.43,0,0,0,0,4.87l4.31,4.31a3.43,3.43,0,0,0,4.87,0L76.6,137.14a3.45,3.45,0,0,0,0-4.88L42.52,98.19A3.43,3.43,0,0,0,37.65,98.19Z" transform="translate(-2.51 -97.18)"/><path class="cls-1" d="M21.61,132.35l14.46-14.46a2.51,2.51,0,0,0,0-3.55L30.68,109a2.52,2.52,0,0,0-3.56,0l-23.7,23.7a3.1,3.1,0,0,0,0,4.38l23.67,23.68a2.56,2.56,0,0,0,3.62,0L36,155.38a2.56,2.56,0,0,0,0-3.62L21.61,137.34A3.54,3.54,0,0,1,21.61,132.35Z" transform="translate(-2.51 -97.18)"/></svg>